<svg width="64" height="64" viewBox="0 0 64 64" fill="none" xmlns="http://www.w3.org/2000/svg">
<path fill-rule="evenodd" clip-rule="evenodd" d="M48.5485 16.3033C44.2423 11.9971 38.5166 9.62552 32.4266 9.62552C26.3365 9.62552 20.6107 11.9971 16.3046 16.3038C12.7666 19.8418 10.533 24.3245 9.84522 29.2673C9.18007 34.0477 10.0681 39.0085 12.3461 43.2357C12.7148 43.9205 13.5684 44.1765 14.2532 43.8074C14.9377 43.4389 15.1936 42.5846 14.8248 41.9004C10.6736 34.1965 12.1007 24.4889 18.2957 18.2942C22.0704 14.5199 27.0889 12.441 32.427 12.441C37.7649 12.441 42.7835 14.5199 46.558 18.2942C50.3325 22.0685 52.4114 27.0872 52.4114 32.4252C52.4114 37.7636 50.3325 42.7818 46.558 46.5565C40.3627 52.7512 30.6555 54.1786 22.9514 50.0272C22.2668 49.6581 21.4129 49.9141 21.0442 50.5989C20.6754 51.2831 20.9313 52.1373 21.6158 52.5059C24.9278 54.2907 28.6897 55.2223 32.4626 55.2223C33.5056 55.2223 34.5498 55.1509 35.585 55.0071C40.5279 54.3194 45.0107 52.0855 48.5488 48.5476C52.8551 44.2413 55.2267 38.5157 55.2267 32.4257C55.2267 26.3356 52.8549 20.6095 48.5485 16.3033ZM16.3029 46.5571C16.8513 46.0061 17.7425 46.004 18.2938 46.5525C18.8448 47.1005 18.847 47.992 18.2987 48.5436L18.2849 48.5571C18.01 48.8336 17.6484 48.9719 17.2871 48.9719C16.9278 48.9719 16.5689 48.8357 16.294 48.5621C15.7429 48.0136 15.7407 47.1222 16.2891 46.5711L16.3029 46.5571ZM39.1201 32.4407C40.6188 31.2537 41.583 29.4196 41.583 27.3643C41.583 23.7936 38.6779 20.8885 35.1074 20.8885H33.8404V18.4954C33.8404 17.7176 33.2102 17.0877 32.4327 17.0877C31.6552 17.0877 31.025 17.7176 31.025 18.4954V20.8885H26.2386C25.461 20.8885 24.8307 21.519 24.8307 22.2964V32.4322L24.8312 32.4407L24.8307 32.4498V42.5857C24.8307 43.3629 25.461 43.9934 26.2386 43.9934H31.025V46.3685C31.025 47.1458 31.6552 47.7763 32.4327 47.7763C33.2102 47.7763 33.8404 47.1458 33.8404 46.3685V43.9929H35.1074C38.6781 43.9929 41.583 41.0879 41.583 37.5178C41.583 35.4614 40.6188 33.6278 39.1201 32.4407ZM31.025 41.1774H27.6463V33.8575H31.025V41.1774ZM31.025 31.0239H27.6463V23.7036H31.025V31.0239ZM35.1074 41.1774H33.8404V33.8575H35.1074C37.1256 33.8575 38.7676 35.4991 38.7676 37.5178C38.7676 39.5358 37.1255 41.1774 35.1074 41.1774ZM35.1074 31.0239H33.8404V23.7036H35.1074C37.1256 23.7036 38.7676 25.3456 38.7676 27.3637C38.7676 29.3824 37.1255 31.0239 35.1074 31.0239ZM32.4323 59.5312C47.3986 59.5312 59.5313 47.3986 59.5313 32.4323C59.5313 17.4659 47.3986 5.33325 32.4323 5.33325C17.4659 5.33325 5.33331 17.4659 5.33331 32.4323C5.33331 47.3986 17.4659 59.5312 32.4323 59.5312Z" fill="#FFB822"/>
<path fill-rule="evenodd" clip-rule="evenodd" d="M48.5485 16.3033C44.2423 11.9971 38.5166 9.62552 32.4266 9.62552C26.3365 9.62552 20.6107 11.9971 16.3046 16.3038C12.7666 19.8418 10.533 24.3245 9.84522 29.2673C9.18007 34.0477 10.0681 39.0085 12.3461 43.2357C12.7148 43.9205 13.5684 44.1765 14.2532 43.8074C14.9377 43.4389 15.1936 42.5846 14.8248 41.9004C10.6736 34.1965 12.1007 24.4889 18.2957 18.2942C22.0704 14.5199 27.0889 12.441 32.427 12.441C37.7649 12.441 42.7835 14.5199 46.558 18.2942C50.3325 22.0685 52.4114 27.0872 52.4114 32.4252C52.4114 37.7636 50.3325 42.7818 46.558 46.5565C40.3627 52.7512 30.6555 54.1786 22.9514 50.0272C22.2668 49.6581 21.4129 49.9141 21.0442 50.5989C20.6754 51.2831 20.9313 52.1373 21.6158 52.5059C24.9278 54.2907 28.6897 55.2223 32.4626 55.2223C33.5056 55.2223 34.5498 55.1509 35.585 55.0071C40.5279 54.3194 45.0107 52.0855 48.5488 48.5476C52.8551 44.2413 55.2267 38.5157 55.2267 32.4257C55.2267 26.3356 52.8549 20.6095 48.5485 16.3033ZM16.3029 46.5571C16.8513 46.0061 17.7425 46.004 18.2938 46.5525C18.8448 47.1005 18.847 47.992 18.2987 48.5436L18.2849 48.5571C18.01 48.8336 17.6484 48.9719 17.2871 48.9719C16.9278 48.9719 16.5689 48.8357 16.294 48.5621C15.7429 48.0136 15.7407 47.1222 16.2891 46.5711L16.3029 46.5571ZM39.1201 32.4407C40.6188 31.2537 41.583 29.4196 41.583 27.3643C41.583 23.7936 38.6779 20.8885 35.1074 20.8885H33.8404V18.4954C33.8404 17.7176 33.2102 17.0877 32.4327 17.0877C31.6552 17.0877 31.025 17.7176 31.025 18.4954V20.8885H26.2386C25.461 20.8885 24.8307 21.519 24.8307 22.2964V32.4322L24.8312 32.4407L24.8307 32.4498V42.5857C24.8307 43.3629 25.461 43.9934 26.2386 43.9934H31.025V46.3685C31.025 47.1458 31.6552 47.7763 32.4327 47.7763C33.2102 47.7763 33.8404 47.1458 33.8404 46.3685V43.9929H35.1074C38.6781 43.9929 41.583 41.0879 41.583 37.5178C41.583 35.4614 40.6188 33.6278 39.1201 32.4407ZM31.025 41.1774H27.6463V33.8575H31.025V41.1774ZM31.025 31.0239H27.6463V23.7036H31.025V31.0239ZM35.1074 41.1774H33.8404V33.8575H35.1074C37.1256 33.8575 38.7676 35.4991 38.7676 37.5178C38.7676 39.5358 37.1255 41.1774 35.1074 41.1774ZM35.1074 31.0239H33.8404V23.7036H35.1074C37.1256 23.7036 38.7676 25.3456 38.7676 27.3637C38.7676 29.3824 37.1255 31.0239 35.1074 31.0239ZM32.4323 59.5312C47.3986 59.5312 59.5313 47.3986 59.5313 32.4323C59.5313 17.4659 47.3986 5.33325 32.4323 5.33325C17.4659 5.33325 5.33331 17.4659 5.33331 32.4323C5.33331 47.3986 17.4659 59.5312 32.4323 59.5312Z" fill="url(#paint0_linear_1_19418)"/>
<path d="M10.2709 6.61944C10.484 6.61944 10.6667 6.44856 10.6667 6.22072C10.6667 6.02136 10.484 5.85048 10.2709 5.85048C9.90559 5.85048 6.61796 5.73656 6.61796 2.14807C6.61796 1.94871 6.43531 1.77783 6.22222 1.77783C6.00912 1.77783 5.82647 1.94871 5.82647 2.14807C5.82647 5.73656 2.5388 5.85048 2.17351 5.85048C2.14307 5.85048 2.14307 5.85048 2.14307 5.85048C1.92998 5.87896 1.77777 6.02136 1.77777 6.22072C1.77777 6.42008 1.96042 6.59096 2.17351 6.59096C2.56925 6.59096 5.82647 6.70488 5.82647 10.2934C5.82647 10.4928 6.00912 10.6636 6.22222 10.6636C6.40486 10.6921 6.58751 10.5212 6.58751 10.3218C6.58751 6.73336 9.87519 6.61944 10.2404 6.61944H10.2709ZM6.19177 8.2428C5.70471 7.16056 4.82191 6.56248 3.99999 6.22072C4.88279 5.87896 5.70471 5.22392 6.19177 4.19863C6.67884 5.28088 7.56164 5.87896 8.38356 6.22072C7.50076 6.56248 6.67884 7.21752 6.19177 8.2428Z" fill="white"/>
<path d="M61.8265 58.1749C62.0395 58.1749 62.2222 58.004 62.2222 57.7761C62.2222 57.5768 62.0395 57.4059 61.8265 57.4059C61.4611 57.4059 58.1735 57.292 58.1735 53.7035C58.1735 53.5041 57.9908 53.3333 57.7778 53.3333C57.5647 53.3333 57.382 53.5041 57.382 53.7035C57.382 57.292 54.0944 57.4059 53.729 57.4059C53.6986 57.4059 53.6986 57.4059 53.6986 57.4059C53.4855 57.4344 53.3333 57.5768 53.3333 57.7761C53.3333 57.9755 53.516 58.1464 53.729 58.1464C54.1248 58.1464 57.382 58.2603 57.382 61.8488C57.382 62.0482 57.5647 62.219 57.7778 62.219C57.9604 62.2475 58.1431 62.0766 58.1431 61.8773C58.1431 58.2888 61.4307 58.1749 61.796 58.1749H61.8265ZM57.7474 59.7982C57.2602 58.716 56.3775 58.1179 55.5555 57.7761C56.4384 57.4344 57.2602 56.7793 57.7474 55.7541C58.2344 56.8363 59.1171 57.4344 59.9391 57.7761C59.0563 58.1179 58.2344 58.7729 57.7474 59.7982Z" fill="white"/>
<defs>
<linearGradient id="paint0_linear_1_19418" x1="32.4323" y1="5.33325" x2="32.4323" y2="59.5312" gradientUnits="userSpaceOnUse">
<stop stop-color="#F6871F" stop-opacity="0.7"/>
<stop offset="1" stop-color="#FCB216"/>
</linearGradient>
</defs>
</svg>
