<svg width="4" height="8" viewBox="0 0 4 8" fill="none" xmlns="http://www.w3.org/2000/svg">
<path d="M2.00003 0.799805C0.969095 0.799805 0.133362 1.63554 0.133362 2.66647C0.133362 3.60655 0.829192 4.382 1.73336 4.51178V6.93314C1.73286 6.96847 1.73939 7.00356 1.75257 7.03635C1.76574 7.06914 1.78531 7.09899 1.81012 7.12415C1.83493 7.14932 1.8645 7.1693 1.8971 7.18294C1.9297 7.19658 1.96469 7.2036 2.00003 7.2036C2.03537 7.2036 2.07036 7.19658 2.10296 7.18294C2.13556 7.1693 2.16513 7.14932 2.18994 7.12415C2.21475 7.09899 2.23431 7.06914 2.24749 7.03635C2.26067 7.00356 2.26719 6.96847 2.2667 6.93314V4.51178C3.17086 4.382 3.8667 3.60655 3.8667 2.66647C3.8667 1.63554 3.03096 0.799805 2.00003 0.799805ZM2.00003 1.33314C2.3315 1.33314 2.60003 1.51234 2.60003 1.73314C2.60003 1.95394 2.3315 2.13314 2.00003 2.13314C1.66856 2.13314 1.40003 1.95394 1.40003 1.73314C1.40003 1.51234 1.66856 1.33314 2.00003 1.33314Z" fill="white"/>
</svg>
