<svg width="64" height="64" viewBox="0 0 64 64" fill="none" xmlns="http://www.w3.org/2000/svg">
<g clip-path="url(#clip0_1_19453)">
<path d="M27.2418 18.123L28.3108 11.987C28.5958 10.7027 29.5223 9.77515 30.8051 9.77515C31.3752 9.77515 31.8028 10.2032 31.8028 10.774V11.4162C30.4488 11.4162 29.5223 11.8443 28.8096 12.6291C28.5246 12.9145 27.9544 15.1977 27.2418 18.123Z" fill="#FFB822"/>
<path d="M27.2418 18.123L28.3108 11.987C28.5958 10.7027 29.5223 9.77515 30.8051 9.77515C31.3752 9.77515 31.8028 10.2032 31.8028 10.774V11.4162C30.4488 11.4162 29.5223 11.8443 28.8096 12.6291C28.5246 12.9145 27.9544 15.1977 27.2418 18.123Z" fill="url(#paint0_linear_1_19453)"/>
<path d="M30.8766 16.8384C30.1639 16.8384 29.8076 17.4092 29.665 18.0513L27.8834 32.3211C27.8834 32.5351 27.5271 32.7492 27.3133 32.7492H27.1707C26.9569 32.7492 26.7431 32.4638 26.7431 32.1784L28.6673 17.7659C28.8811 16.6243 29.8788 15.8395 31.0191 15.8395H31.8743V12.4861C30.449 12.4861 29.8076 12.9142 29.4513 13.3423C29.0949 13.9844 26.8857 23.0457 25.3891 29.6812L25.104 30.6801L20.6142 43.4515C20.4004 44.4504 19.9857 45.2352 19.0593 45.592V49.8729C19.0593 50.2297 18.5678 50.489 18.2827 50.489C17.9264 50.489 17.5497 50.1583 17.5497 49.8729V43.8083C17.4785 43.4515 17.1221 43.2375 16.7658 43.2375H8.92647C8.49887 43.2375 8.07127 43.5942 8.07127 44.0937V45.806H8L8.07127 54.4393V62.9298C8.07127 63.3579 8.4276 63.786 8.92647 63.786H16.7658C17.1221 63.786 17.4785 63.5006 17.5497 63.1438V55.7235C17.5497 55.6522 17.5497 55.6522 17.5497 55.5808C17.621 55.2955 17.8683 55.0415 18.2827 55.0415C18.7761 55.0415 19.0593 55.3668 19.0593 55.6522V59.9331H20.3291C24.8189 59.9331 27.6696 57.7213 29.3087 52.7982L31.5892 36.1026L31.8743 16.767L30.8766 16.8384ZM19.0593 53.8685C19.0593 54.2252 18.6088 54.4393 18.3238 54.4393C18.0387 54.4393 17.8494 54.3578 17.723 54.2312C17.6517 54.1599 17.5497 54.0112 17.5497 53.8685V52.5842C17.5497 52.2274 17.8972 52.0134 18.2827 52.0134C18.6683 52.0134 19.0593 52.2274 19.0593 52.5842V53.8685Z" fill="#FFB822"/>
<path d="M30.8766 16.8384C30.1639 16.8384 29.8076 17.4092 29.665 18.0513L27.8834 32.3211C27.8834 32.5351 27.5271 32.7492 27.3133 32.7492H27.1707C26.9569 32.7492 26.7431 32.4638 26.7431 32.1784L28.6673 17.7659C28.8811 16.6243 29.8788 15.8395 31.0191 15.8395H31.8743V12.4861C30.449 12.4861 29.8076 12.9142 29.4513 13.3423C29.0949 13.9844 26.8857 23.0457 25.3891 29.6812L25.104 30.6801L20.6142 43.4515C20.4004 44.4504 19.9857 45.2352 19.0593 45.592V49.8729C19.0593 50.2297 18.5678 50.489 18.2827 50.489C17.9264 50.489 17.5497 50.1583 17.5497 49.8729V43.8083C17.4785 43.4515 17.1221 43.2375 16.7658 43.2375H8.92647C8.49887 43.2375 8.07127 43.5942 8.07127 44.0937V45.806H8L8.07127 54.4393V62.9298C8.07127 63.3579 8.4276 63.786 8.92647 63.786H16.7658C17.1221 63.786 17.4785 63.5006 17.5497 63.1438V55.7235C17.5497 55.6522 17.5497 55.6522 17.5497 55.5808C17.621 55.2955 17.8683 55.0415 18.2827 55.0415C18.7761 55.0415 19.0593 55.3668 19.0593 55.6522V59.9331H20.3291C24.8189 59.9331 27.6696 57.7213 29.3087 52.7982L31.5892 36.1026L31.8743 16.767L30.8766 16.8384ZM19.0593 53.8685C19.0593 54.2252 18.6088 54.4393 18.3238 54.4393C18.0387 54.4393 17.8494 54.3578 17.723 54.2312C17.6517 54.1599 17.5497 54.0112 17.5497 53.8685V52.5842C17.5497 52.2274 17.8972 52.0134 18.2827 52.0134C18.6683 52.0134 19.0593 52.2274 19.0593 52.5842V53.8685Z" fill="url(#paint1_linear_1_19453)"/>
<path d="M50.4749 21.6233L55.0359 20.6958" stroke="white" stroke-miterlimit="10" stroke-linecap="round"/>
<path d="M40.4976 3.4961L43.2057 0" stroke="white" stroke-miterlimit="10" stroke-linecap="round"/>
<path d="M14.5568 21.6233L10.067 20.6958" stroke="white" stroke-miterlimit="10" stroke-linecap="round"/>
<path d="M24.2488 3.4961L21.5406 0" stroke="white" stroke-miterlimit="10" stroke-linecap="round"/>
<path d="M37.8795 18.123L36.8105 11.987C36.5254 10.7027 35.5989 9.77515 34.3161 9.77515C33.746 9.77515 33.3184 10.2032 33.3184 10.774V11.4162C34.6725 11.4162 35.5989 11.8443 36.3116 12.6291C36.5967 12.9145 37.1668 15.1977 37.8795 18.123Z" fill="#FFB822"/>
<path d="M37.8795 18.123L36.8105 11.987C36.5254 10.7027 35.5989 9.77515 34.3161 9.77515C33.746 9.77515 33.3184 10.2032 33.3184 10.774V11.4162C34.6725 11.4162 35.5989 11.8443 36.3116 12.6291C36.5967 12.9145 37.1668 15.1977 37.8795 18.123Z" fill="url(#paint2_linear_1_19453)"/>
<path d="M34.2446 16.8384C34.9573 16.8384 35.3136 17.4092 35.4562 18.0513L37.2378 32.3211C37.2378 32.5351 37.5942 32.7492 37.808 32.7492H37.9505C38.1643 32.7492 38.3781 32.4638 38.3781 32.1784L36.4539 17.7659C36.2401 16.6243 35.2424 15.8395 34.1021 15.8395H33.2469V12.4861C34.6722 12.4861 35.3136 12.9142 35.67 13.3423C36.0263 13.9844 38.2356 23.0457 39.7322 29.6812L40.0172 30.6801L44.507 43.4515C44.7208 44.4504 45.1355 45.2353 46.0619 45.592V49.8729C46.0619 50.2297 46.5534 50.489 46.8385 50.489C47.1948 50.489 47.5715 50.1583 47.5715 49.8729V43.8083C47.6428 43.4515 47.9991 43.2375 48.3554 43.2375H56.1947C56.6223 43.2375 57.0499 43.5942 57.0499 44.0937V45.806H57.1212L57.0499 54.4393V62.9298C57.0499 63.3579 56.6936 63.786 56.1947 63.786H48.3554C47.9991 63.786 47.6428 63.5006 47.5715 63.1438V55.7236C47.5715 55.6522 47.5715 55.6522 47.5715 55.5809C47.5002 55.2955 47.2529 55.0415 46.8385 55.0415C46.3452 55.0415 46.0619 55.3668 46.0619 55.6522V59.9331H44.7921C40.3023 59.9331 37.4516 57.7213 35.8125 52.7982L33.532 36.1026L33.2469 16.767L34.2446 16.8384ZM46.0619 53.8685C46.0619 54.2252 46.5124 54.4393 46.7975 54.4393C47.0825 54.4393 47.2718 54.3578 47.3982 54.2313C47.4695 54.1599 47.5715 54.0112 47.5715 53.8685V52.5842C47.5715 52.2275 47.224 52.0134 46.8385 52.0134C46.4529 52.0134 46.0619 52.2275 46.0619 52.5842V53.8685Z" fill="#FFB822"/>
<path d="M34.2446 16.8384C34.9573 16.8384 35.3136 17.4092 35.4562 18.0513L37.2378 32.3211C37.2378 32.5351 37.5942 32.7492 37.808 32.7492H37.9505C38.1643 32.7492 38.3781 32.4638 38.3781 32.1784L36.4539 17.7659C36.2401 16.6243 35.2424 15.8395 34.1021 15.8395H33.2469V12.4861C34.6722 12.4861 35.3136 12.9142 35.67 13.3423C36.0263 13.9844 38.2356 23.0457 39.7322 29.6812L40.0172 30.6801L44.507 43.4515C44.7208 44.4504 45.1355 45.2353 46.0619 45.592V49.8729C46.0619 50.2297 46.5534 50.489 46.8385 50.489C47.1948 50.489 47.5715 50.1583 47.5715 49.8729V43.8083C47.6428 43.4515 47.9991 43.2375 48.3554 43.2375H56.1947C56.6223 43.2375 57.0499 43.5942 57.0499 44.0937V45.806H57.1212L57.0499 54.4393V62.9298C57.0499 63.3579 56.6936 63.786 56.1947 63.786H48.3554C47.9991 63.786 47.6428 63.5006 47.5715 63.1438V55.7236C47.5715 55.6522 47.5715 55.6522 47.5715 55.5809C47.5002 55.2955 47.2529 55.0415 46.8385 55.0415C46.3452 55.0415 46.0619 55.3668 46.0619 55.6522V59.9331H44.7921C40.3023 59.9331 37.4516 57.7213 35.8125 52.7982L33.532 36.1026L33.2469 16.767L34.2446 16.8384ZM46.0619 53.8685C46.0619 54.2252 46.5124 54.4393 46.7975 54.4393C47.0825 54.4393 47.2718 54.3578 47.3982 54.2313C47.4695 54.1599 47.5715 54.0112 47.5715 53.8685V52.5842C47.5715 52.2275 47.224 52.0134 46.8385 52.0134C46.4529 52.0134 46.0619 52.2275 46.0619 52.5842V53.8685Z" fill="url(#paint3_linear_1_19453)"/>
</g>
<defs>
<linearGradient id="paint0_linear_1_19453" x1="29.5223" y1="9.77515" x2="29.5223" y2="18.123" gradientUnits="userSpaceOnUse">
<stop stop-color="#F6871F" stop-opacity="0.7"/>
<stop offset="1" stop-color="#FCB216"/>
</linearGradient>
<linearGradient id="paint1_linear_1_19453" x1="19.9372" y1="12.4861" x2="19.9372" y2="63.786" gradientUnits="userSpaceOnUse">
<stop stop-color="#F6871F" stop-opacity="0.7"/>
<stop offset="1" stop-color="#FCB216"/>
</linearGradient>
<linearGradient id="paint2_linear_1_19453" x1="35.5989" y1="9.77515" x2="35.5989" y2="18.123" gradientUnits="userSpaceOnUse">
<stop stop-color="#F6871F" stop-opacity="0.7"/>
<stop offset="1" stop-color="#FCB216"/>
</linearGradient>
<linearGradient id="paint3_linear_1_19453" x1="45.1841" y1="12.4861" x2="45.1841" y2="63.786" gradientUnits="userSpaceOnUse">
<stop stop-color="#F6871F" stop-opacity="0.7"/>
<stop offset="1" stop-color="#FCB216"/>
</linearGradient>
<clipPath id="clip0_1_19453">
<rect width="64" height="64" fill="white"/>
</clipPath>
</defs>
</svg>
