<svg width="64" height="64" viewBox="0 0 64 64" fill="none" xmlns="http://www.w3.org/2000/svg">
<path d="M2.45339 53.1883C2.60276 52.6401 3.09715 52.2603 3.66111 52.2603H9.33648C9.90044 52.2603 10.3948 52.6401 10.5442 53.1883L12.9522 62.0246C13.1711 62.8281 12.5712 63.6212 11.7444 63.6212H1.25316C0.4264 63.6212 -0.173525 62.8281 0.0454414 62.0246L2.45339 53.1883Z" fill="#FFB822"/>
<path d="M2.45339 53.1883C2.60276 52.6401 3.09715 52.2603 3.66111 52.2603H9.33648C9.90044 52.2603 10.3948 52.6401 10.5442 53.1883L12.9522 62.0246C13.1711 62.8281 12.5712 63.6212 11.7444 63.6212H1.25316C0.4264 63.6212 -0.173525 62.8281 0.0454414 62.0246L2.45339 53.1883Z" fill="url(#paint0_linear_1_19483)"/>
<path d="M5.37152 35.048C5.37152 34.6513 5.82011 34.3298 6.37348 34.3298C6.92683 34.3298 7.37544 34.6513 7.37544 35.048V37.4804H5.37152V35.048Z" fill="#FFB822"/>
<path d="M5.37152 35.048C5.37152 34.6513 5.82011 34.3298 6.37348 34.3298C6.92683 34.3298 7.37544 34.6513 7.37544 35.048V37.4804H5.37152V35.048Z" fill="url(#paint1_linear_1_19483)"/>
<path d="M58.6007 35.048C58.6007 34.6513 58.1521 34.3298 57.5988 34.3298C57.0453 34.3298 56.5968 34.6513 56.5968 35.048V37.4804H58.6007V35.048Z" fill="#FFB822"/>
<path d="M58.6007 35.048C58.6007 34.6513 58.1521 34.3298 57.5988 34.3298C57.0453 34.3298 56.5968 34.6513 56.5968 35.048V37.4804H58.6007V35.048Z" fill="url(#paint2_linear_1_19483)"/>
<path d="M27.5399 9.99422C27.5399 7.81794 29.5025 6.05371 31.9235 6.05371C34.3445 6.05371 36.307 7.81794 36.307 9.99422V17.6619H27.5399V9.99422Z" fill="#FFB822"/>
<path d="M27.5399 9.99422C27.5399 7.81794 29.5025 6.05371 31.9235 6.05371C34.3445 6.05371 36.307 7.81794 36.307 9.99422V17.6619H27.5399V9.99422Z" fill="url(#paint3_linear_1_19483)"/>
<path d="M3.11719 42.535C3.11719 40.6526 4.63118 39.1267 6.49879 39.1267C8.3664 39.1267 9.8804 40.6526 9.8804 42.535V50.6139H3.11719V42.535Z" fill="#FFB822"/>
<path d="M3.11719 42.535C3.11719 40.6526 4.63118 39.1267 6.49879 39.1267C8.3664 39.1267 9.8804 40.6526 9.8804 42.535V50.6139H3.11719V42.535Z" fill="url(#paint4_linear_1_19483)"/>
<path d="M60.7992 42.535C60.7992 40.6526 59.2853 39.1267 57.4176 39.1267C55.5501 39.1267 54.036 40.6526 54.036 42.535V50.6139H60.7992V42.535Z" fill="#FFB822"/>
<path d="M60.7992 42.535C60.7992 40.6526 59.2853 39.1267 57.4176 39.1267C55.5501 39.1267 54.036 40.6526 54.036 42.535V50.6139H60.7992V42.535Z" fill="url(#paint5_linear_1_19483)"/>
<path d="M61.4633 53.1883C61.314 52.6401 60.8195 52.2603 60.2555 52.2603H54.5802C54.0162 52.2603 53.5219 52.6401 53.3725 53.1883L50.9645 62.0246C50.7456 62.8281 51.3455 63.6212 52.1723 63.6212H62.6635C63.4902 63.6212 64.0901 62.8281 63.8712 62.0246L61.4633 53.1883Z" fill="#FFB822"/>
<path d="M61.4633 53.1883C61.314 52.6401 60.8195 52.2603 60.2555 52.2603H54.5802C54.0162 52.2603 53.5219 52.6401 53.3725 53.1883L50.9645 62.0246C50.7456 62.8281 51.3455 63.6212 52.1723 63.6212H62.6635C63.4902 63.6212 64.0901 62.8281 63.8712 62.0246L61.4633 53.1883Z" fill="url(#paint6_linear_1_19483)"/>
<path fill-rule="evenodd" clip-rule="evenodd" d="M28.2914 19.5608C25.8011 19.5608 23.7826 21.5954 23.7826 24.1052V43.4188H40.1896V24.1052C40.1896 21.5954 38.1709 19.5608 35.6808 19.5608H28.2914ZM31.9235 27.261C31.2317 27.261 30.671 27.8261 30.671 28.5233V34.5825C30.671 35.2797 31.2317 35.8448 31.9235 35.8448C32.6152 35.8448 33.1759 35.2797 33.1759 34.5825V28.5233C33.1759 27.8261 32.6152 27.261 31.9235 27.261Z" fill="#FFB822"/>
<path fill-rule="evenodd" clip-rule="evenodd" d="M28.2914 19.5608C25.8011 19.5608 23.7826 21.5954 23.7826 24.1052V43.4188H40.1896V24.1052C40.1896 21.5954 38.1709 19.5608 35.6808 19.5608H28.2914ZM31.9235 27.261C31.2317 27.261 30.671 27.8261 30.671 28.5233V34.5825C30.671 35.2797 31.2317 35.8448 31.9235 35.8448C32.6152 35.8448 33.1759 35.2797 33.1759 34.5825V28.5233C33.1759 27.8261 32.6152 27.261 31.9235 27.261Z" fill="url(#paint7_linear_1_19483)"/>
<path d="M21.2497 46.6377C21.5403 45.8443 22.2905 45.3174 23.1297 45.3174H40.5923C41.4313 45.3174 42.1815 45.8443 42.4722 46.6377L47.8355 61.2807C48.3186 62.5994 47.3505 63.9998 45.9556 63.9998H17.7662C16.3713 63.9998 15.4032 62.5994 15.8863 61.2807L21.2497 46.6377Z" fill="#FFB822"/>
<path d="M21.2497 46.6377C21.5403 45.8443 22.2905 45.3174 23.1297 45.3174H40.5923C41.4313 45.3174 42.1815 45.8443 42.4722 46.6377L47.8355 61.2807C48.3186 62.5994 47.3505 63.9998 45.9556 63.9998H17.7662C16.3713 63.9998 15.4032 62.5994 15.8863 61.2807L21.2497 46.6377Z" fill="url(#paint8_linear_1_19483)"/>
<path d="M30.671 2.05567C30.671 1.33268 31.2525 0.746582 31.9698 0.746582C32.6871 0.746582 33.2686 1.33268 33.2686 2.05567V4.2811H30.671V2.05567Z" fill="#FFB822"/>
<path d="M30.671 2.05567C30.671 1.33268 31.2525 0.746582 31.9698 0.746582C32.6871 0.746582 33.2686 1.33268 33.2686 2.05567V4.2811H30.671V2.05567Z" fill="url(#paint9_linear_1_19483)"/>
<path d="M9.06415 8.82092C7.6396 9.51623 7.40603 11.1486 7.50967 11.857C6.26608 12.1605 5.33334 12.7678 5.33334 14.2858C5.33334 15.5002 6.45569 16.4392 7.82055 16.411C9.18541 16.3828 13.8759 16.3828 16.5258 16.411C19.1756 16.4392 19.5498 11.5757 15.904 11.5534C15.904 10.0354 13.938 9.331 12.795 10.0354C12.1732 8.82062 10.3078 8.21394 9.06415 8.82092Z" stroke="white"/>
<path d="M53.679 10.6666H47.7529C45.9071 10.5636 45.7128 7.68087 47.2672 6.85723C47.17 5.51881 48.6273 4.69516 49.3073 5.51879C50.3177 4.36568 51.3474 4.38607 51.8332 4.48923C52.9018 4.69514 53.7762 5.7247 53.679 7.06312C55.9135 7.37198 55.2334 10.6666 53.679 10.6666Z" stroke="white" stroke-width="0.8"/>
<defs>
<linearGradient id="paint0_linear_1_19483" x1="6.49878" y1="52.2603" x2="6.49878" y2="63.6212" gradientUnits="userSpaceOnUse">
<stop stop-color="#F6871F" stop-opacity="0.7"/>
<stop offset="1" stop-color="#FCB216"/>
</linearGradient>
<linearGradient id="paint1_linear_1_19483" x1="6.37348" y1="34.3298" x2="6.37348" y2="38.3693" gradientUnits="userSpaceOnUse">
<stop stop-color="#F6871F" stop-opacity="0.7"/>
<stop offset="1" stop-color="#FCB216"/>
</linearGradient>
<linearGradient id="paint2_linear_1_19483" x1="57.5988" y1="34.3298" x2="57.5988" y2="38.3693" gradientUnits="userSpaceOnUse">
<stop stop-color="#F6871F" stop-opacity="0.7"/>
<stop offset="1" stop-color="#FCB216"/>
</linearGradient>
<linearGradient id="paint3_linear_1_19483" x1="31.9235" y1="6.05371" x2="31.9235" y2="18.5508" gradientUnits="userSpaceOnUse">
<stop stop-color="#F6871F" stop-opacity="0.7"/>
<stop offset="1" stop-color="#FCB216"/>
</linearGradient>
<linearGradient id="paint4_linear_1_19483" x1="6.49879" y1="39.1267" x2="6.49879" y2="50.6139" gradientUnits="userSpaceOnUse">
<stop stop-color="#F6871F" stop-opacity="0.7"/>
<stop offset="1" stop-color="#FCB216"/>
</linearGradient>
<linearGradient id="paint5_linear_1_19483" x1="57.4176" y1="39.1267" x2="57.4176" y2="50.6139" gradientUnits="userSpaceOnUse">
<stop stop-color="#F6871F" stop-opacity="0.7"/>
<stop offset="1" stop-color="#FCB216"/>
</linearGradient>
<linearGradient id="paint6_linear_1_19483" x1="57.4179" y1="52.2603" x2="57.4179" y2="63.6212" gradientUnits="userSpaceOnUse">
<stop stop-color="#F6871F" stop-opacity="0.7"/>
<stop offset="1" stop-color="#FCB216"/>
</linearGradient>
<linearGradient id="paint7_linear_1_19483" x1="31.9861" y1="19.5608" x2="31.9861" y2="43.4188" gradientUnits="userSpaceOnUse">
<stop stop-color="#F6871F" stop-opacity="0.7"/>
<stop offset="1" stop-color="#FCB216"/>
</linearGradient>
<linearGradient id="paint8_linear_1_19483" x1="31.8608" y1="45.3174" x2="31.8608" y2="63.9998" gradientUnits="userSpaceOnUse">
<stop stop-color="#F6871F" stop-opacity="0.7"/>
<stop offset="1" stop-color="#FCB216"/>
</linearGradient>
<linearGradient id="paint9_linear_1_19483" x1="31.9698" y1="0.746582" x2="31.9698" y2="4.2811" gradientUnits="userSpaceOnUse">
<stop stop-color="#F6871F" stop-opacity="0.7"/>
<stop offset="1" stop-color="#FCB216"/>
</linearGradient>
</defs>
</svg>
