<svg width="64" height="30" viewBox="0 0 64 30" fill="none" xmlns="http://www.w3.org/2000/svg">
<path d="M5.12 21.7204L7.52 3.88037L4.88 4.52037C4.24 4.60037 2.88 4.84037 2.8 5.88037L0 26.6004C0 27.7204 0.8 28.6804 1.76 28.6804L13.76 29.8804C14.72 29.8804 15.52 29.0004 15.52 27.8004L15.36 24.6004L6.88 23.8004C5.92 23.8004 5.12 22.9204 5.12 21.7204Z" fill="#F6871F"/>
<path d="M19.4411 6.4401C19.4411 5.6401 19.0411 4.8401 18.3211 4.5201L9.36109 0.280098C8.96109 0.0400977 8.48109 0.0400977 8.00109 0.280098L7.52109 3.8801L5.12109 21.7201C5.12109 22.8401 5.92109 23.8001 6.88109 23.8001L15.3611 24.6001L18.8811 24.9201C19.8411 24.9201 20.6411 24.0401 20.6411 22.8401L19.4411 6.4401Z" fill="#FCB216"/>
<path d="M36.2402 5.72021V19.0002H34.0802V12.9202H27.5202V19.0002H25.3602V5.72021H27.5202V10.9202H34.0802V5.72021H36.2402Z" fill="white"/>
<path d="M48.88 14.2002C48.88 17.2402 46.72 19.2402 43.84 19.2402C40.96 19.2402 38.8 17.2402 38.8 14.2002C38.8 11.1602 40.96 9.16016 43.84 9.16016C46.8 9.24016 48.88 11.1602 48.88 14.2002ZM46.88 14.2002C46.88 12.2802 45.52 11.0002 43.84 11.0002C42.16 11.0002 40.88 12.2002 40.88 14.2002C40.88 16.1202 42.16 17.4002 43.84 17.4002C45.52 17.4002 46.88 16.2002 46.88 14.2002Z" fill="white"/>
<path d="M54.16 11.1599V15.7199C54.16 16.5999 54.72 17.0799 55.6 17.0799H56.88V18.9999H55.28C53.28 18.9999 52.16 18.0399 52.16 16.0399V11.1599H50V9.47994H52.16V6.43994H54.16V9.47994H56.96V11.1599H54.16Z" fill="white"/>
<path d="M27.0414 25.3198H26.3214V27.5598H25.4414V22.2798H27.6014C28.7214 22.2798 29.3614 22.9198 29.3614 23.7998C29.3614 24.5998 28.8814 25.1598 28.0014 25.3198L29.5214 27.5598H28.5614L27.0414 25.3198ZM26.3214 24.5998H27.5214C28.1614 24.5998 28.4814 24.3598 28.4814 23.7998C28.4814 23.3198 28.1614 22.9998 27.5214 22.9998H26.3214V24.5998Z" fill="white"/>
<path d="M30.72 25.8001C30.8 26.6001 31.36 26.9201 32 26.9201C32.48 26.9201 32.88 26.7601 33.28 26.4401H33.36V27.2401C32.88 27.4801 32.4 27.6401 32 27.6401C30.88 27.6401 30 27.0001 30 25.6401C30 24.2801 30.88 23.6401 31.92 23.6401C32.4 23.6401 32.88 23.8001 33.12 24.1201C33.44 24.4401 33.6 24.8401 33.6 25.4801C33.6 25.6401 33.6 25.7201 33.6 25.8801L30.72 25.8001ZM32.8 25.2401C32.72 24.6801 32.4 24.3601 31.84 24.3601C31.28 24.3601 30.88 24.6801 30.72 25.2401H32.8Z" fill="white"/>
<path d="M37.5202 27.5601H36.8002V27.1601C36.5602 27.4801 36.0802 27.6401 35.6002 27.6401C34.7202 27.6401 34.1602 27.0801 34.1602 26.4401C34.1602 25.7201 34.7202 25.2401 35.6802 25.2401C36.0802 25.2401 36.4802 25.3201 36.7202 25.5601V25.2401C36.7202 24.6001 36.3202 24.3601 35.7602 24.3601C35.3602 24.3601 35.0402 24.4401 34.7202 24.6801H34.6402V23.8801C35.0402 23.7201 35.5202 23.6401 35.9202 23.6401C36.8802 23.6401 37.5202 24.1201 37.5202 25.1601V27.5601ZM35.9202 25.8001C35.3602 25.8001 35.0402 26.0401 35.0402 26.3601C35.0402 26.6801 35.3602 26.9201 35.9202 26.9201C36.4802 26.9201 36.8002 26.6801 36.8002 26.3601C36.8002 26.1201 36.4802 25.8001 35.9202 25.8001Z" fill="white"/>
<path d="M39.4398 21.8804V27.5604H38.6398V21.8804H39.4398Z" fill="white"/>
<path d="M45.76 26.7603V27.5603H42.48V22.2803H45.6V23.0803H43.28V24.4403H45.44V25.1603H43.28V26.8403H45.76V26.7603Z" fill="white"/>
<path d="M46.48 26.5201H46.56C46.88 26.7601 47.28 26.9201 47.76 26.9201C48.24 26.9201 48.48 26.7601 48.48 26.5201C48.48 26.3601 48.32 26.2001 48.08 26.0401L47.44 25.7201C46.88 25.4801 46.64 25.0801 46.64 24.6001C46.64 24.2801 46.8 23.9601 47.04 23.8001C47.28 23.6401 47.6 23.5601 48 23.5601C48.48 23.5601 48.8 23.6401 49.12 23.8801V24.6001H49.04C48.72 24.3601 48.4 24.2801 48 24.2801C47.6 24.2801 47.44 24.4401 47.44 24.6001C47.44 24.7601 47.6 24.9201 47.92 25.0801L48.56 25.4001C49.12 25.6401 49.36 25.9601 49.36 26.5201C49.36 26.9201 49.2 27.1601 48.96 27.4001C48.64 27.5601 48.32 27.6401 47.92 27.6401C47.44 27.6401 46.96 27.4801 46.64 27.3201L46.48 26.5201Z" fill="white"/>
<path d="M51.3616 24.4401V26.2001C51.3616 26.6001 51.6016 26.7601 51.9216 26.7601H52.4016V27.5601H51.7616C50.9616 27.5601 50.4816 27.1601 50.4816 26.3601V24.4401H49.6016V23.8001H50.4816V22.6001H51.2816V23.8001H52.4016V24.4401H51.3616Z" fill="white"/>
<path d="M56.3202 27.5601H55.6002V27.1601C55.3602 27.4801 54.8802 27.6401 54.4002 27.6401C53.5202 27.6401 52.9602 27.0801 52.9602 26.4401C52.9602 25.7201 53.5202 25.2401 54.4802 25.2401C54.8802 25.2401 55.2802 25.3201 55.5202 25.5601V25.2401C55.5202 24.6001 55.1202 24.3601 54.5602 24.3601C54.1602 24.3601 53.8402 24.4401 53.5202 24.6801H53.4402V23.8801C53.8402 23.7201 54.3202 23.6401 54.7202 23.6401C55.6802 23.6401 56.3202 24.1201 56.3202 25.1601V27.5601ZM54.7202 25.8001C54.1602 25.8001 53.8402 26.0401 53.8402 26.3601C53.8402 26.6801 54.1602 26.9201 54.7202 26.9201C55.2802 26.9201 55.6002 26.6801 55.6002 26.3601C55.6002 26.1201 55.2802 25.8001 54.7202 25.8001Z" fill="white"/>
<path d="M58.6389 24.4401V26.2001C58.6389 26.6001 58.8789 26.7601 59.1989 26.7601H59.6789V27.5601H59.0389C58.2389 27.5601 57.7589 27.1601 57.7589 26.3601V24.4401H56.8789V23.8001H57.7589V22.6001H58.5589V23.8001H59.6789V24.4401H58.6389Z" fill="white"/>
<path d="M61.1184 25.8001C61.1984 26.6001 61.7584 26.9201 62.3984 26.9201C62.8784 26.9201 63.2784 26.7601 63.6784 26.4401H63.7584V27.2401C63.2784 27.4801 62.7984 27.6401 62.3984 27.6401C61.2784 27.6401 60.3984 27.0001 60.3984 25.6401C60.3984 24.2801 61.2784 23.6401 62.3184 23.6401C62.7984 23.6401 63.2784 23.8001 63.5184 24.1201C63.8384 24.4401 63.9984 24.8401 63.9984 25.4801C63.9984 25.6401 63.9984 25.7201 63.9984 25.8801L61.1184 25.8001ZM63.1984 25.2401C63.1184 24.6801 62.7984 24.3601 62.2384 24.3601C61.6784 24.3601 61.2784 24.6801 61.1184 25.2401H63.1984Z" fill="white"/>
</svg>
