<svg width="64" height="64" viewBox="0 0 64 64" fill="none" xmlns="http://www.w3.org/2000/svg">
<path d="M22.281 53.3333H27.2965C26.7707 48.9036 26.5056 43.1375 27.2965 36.4952C27.9223 31.2395 29.0551 26.7303 30.2222 23.1111C29.5256 23.1111 28.8291 23.1111 28.1325 23.1111C26.4956 26.72 24.7113 31.5214 23.5349 37.3587C22.2664 43.6528 22.1059 49.1598 22.281 53.3333Z" fill="#FFB822"/>
<path d="M22.281 53.3333H27.2965C26.7707 48.9036 26.5056 43.1375 27.2965 36.4952C27.9223 31.2395 29.0551 26.7303 30.2222 23.1111C29.5256 23.1111 28.8291 23.1111 28.1325 23.1111C26.4956 26.72 24.7113 31.5214 23.5349 37.3587C22.2664 43.6528 22.1059 49.1598 22.281 53.3333Z" fill="url(#paint0_linear_1_19464)"/>
<path d="M26.2362 36.4952C26.8114 31.2395 27.8527 26.7303 28.9257 23.1111C29.3579 23.1111 29.7902 23.1111 30.2222 23.1111C29.1493 26.7303 28.108 31.2395 27.5327 36.4952C26.8057 43.1374 27.0493 48.9035 27.5327 53.3333H26.2362C25.7529 48.9037 25.5092 43.1375 26.2362 36.4952Z" fill="#FFB822"/>
<path d="M26.2362 36.4952C26.8114 31.2395 27.8527 26.7303 28.9257 23.1111C29.3579 23.1111 29.7902 23.1111 30.2222 23.1111C29.1493 26.7303 28.108 31.2395 27.5327 36.4952C26.8057 43.1374 27.0493 48.9035 27.5327 53.3333H26.2362C25.7529 48.9037 25.5092 43.1375 26.2362 36.4952Z" fill="url(#paint1_linear_1_19464)"/>
<path d="M27.7819 19.9713C24.3287 14.327 16.9243 12.533 11.2439 15.964C10.426 16.4581 9.68869 17.0337 9.03579 17.6738C8.51626 18.1831 8.80328 19.0255 9.51038 19.1968L27.8311 23.636C28.5362 23.8068 29.1763 23.1931 28.9514 22.5034C28.6682 21.635 28.2799 20.7853 27.7819 19.9713Z" fill="#FFB822"/>
<path d="M27.7819 19.9713C24.3287 14.327 16.9243 12.533 11.2439 15.964C10.426 16.4581 9.68869 17.0337 9.03579 17.6738C8.51626 18.1831 8.80328 19.0255 9.51038 19.1968L27.8311 23.636C28.5362 23.8068 29.1763 23.1931 28.9514 22.5034C28.6682 21.635 28.2799 20.7853 27.7819 19.9713Z" fill="url(#paint2_linear_1_19464)"/>
<path d="M31.3663 20.588C34.6478 14.6862 32.4499 7.28178 26.4573 4.04999C25.5785 3.57601 24.6669 3.21851 23.7406 2.97171C23.0386 2.78468 22.4565 3.45596 22.6632 4.15237L28.1201 22.5366C28.3251 23.2273 29.1691 23.476 29.6584 22.947C30.3074 22.2453 30.8829 21.4574 31.3663 20.588Z" fill="#FFB822"/>
<path d="M31.3663 20.588C34.6478 14.6862 32.4499 7.28178 26.4573 4.04999C25.5785 3.57601 24.6669 3.21851 23.7406 2.97171C23.0386 2.78468 22.4565 3.45596 22.6632 4.15237L28.1201 22.5366C28.3251 23.2273 29.1691 23.476 29.6584 22.947C30.3074 22.2453 30.8829 21.4574 31.3663 20.588Z" fill="url(#paint3_linear_1_19464)"/>
<path d="M25.6252 22.4228C18.9116 22.5746 13.5922 28.1402 13.7439 34.8538C13.7659 35.8306 13.903 36.7778 14.1414 37.683C14.3263 38.3846 15.1967 38.5557 15.698 38.0312L28.8878 24.2314C29.3891 23.7069 29.1788 22.8451 28.4696 22.6922C27.5545 22.4949 26.6021 22.4008 25.6252 22.4228Z" fill="#FFB822"/>
<path d="M25.6252 22.4228C18.9116 22.5746 13.5922 28.1402 13.7439 34.8538C13.7659 35.8306 13.903 36.7778 14.1414 37.683C14.3263 38.3846 15.1967 38.5557 15.698 38.0312L28.8878 24.2314C29.3891 23.7069 29.1788 22.8451 28.4696 22.6922C27.5545 22.4949 26.6021 22.4008 25.6252 22.4228Z" fill="url(#paint4_linear_1_19464)"/>
<path d="M29.8785 19.7937C33.3668 14.0553 40.8465 12.2314 46.5847 15.7196C47.4196 16.2272 48.1714 16.8195 48.836 17.4784C49.3513 17.9893 49.0642 18.8287 48.3593 19.0006L29.8135 23.5232C29.1086 23.6951 28.4674 23.0821 28.6896 22.3914C28.9763 21.5004 29.371 20.6286 29.8785 19.7937Z" fill="#FFB822"/>
<path d="M29.8785 19.7937C33.3668 14.0553 40.8465 12.2314 46.5847 15.7196C47.4196 16.2272 48.1714 16.8195 48.836 17.4784C49.3513 17.9893 49.0642 18.8287 48.3593 19.0006L29.8135 23.5232C29.1086 23.6951 28.4674 23.0821 28.6896 22.3914C28.9763 21.5004 29.371 20.6286 29.8785 19.7937Z" fill="url(#paint5_linear_1_19464)"/>
<path d="M32.7179 23.1141C39.3424 23.2593 44.5912 28.5822 44.4413 35.0031C44.4197 35.931 44.2861 36.8309 44.0538 37.6912C43.8677 38.3806 43.014 38.55 42.5126 38.0415L29.5609 24.9069C29.0437 24.3825 29.2559 23.5047 29.9777 23.358C30.8603 23.1787 31.7776 23.0936 32.7179 23.1141Z" fill="#FFB822"/>
<path d="M32.7179 23.1141C39.3424 23.2593 44.5912 28.5822 44.4413 35.0031C44.4197 35.931 44.2861 36.8309 44.0538 37.6912C43.8677 38.3806 43.014 38.55 42.5126 38.0415L29.5609 24.9069C29.0437 24.3825 29.2559 23.5047 29.9777 23.358C30.8603 23.1787 31.7776 23.0936 32.7179 23.1141Z" fill="url(#paint6_linear_1_19464)"/>
<path d="M31.5555 46.2222C39.3155 46.2222 46.6259 48.1669 53.0361 51.5998C53.9181 52.0722 53.5661 53.3333 52.5656 53.3333H10.5455C9.54506 53.3333 9.19304 52.0722 10.075 51.5998C16.4852 48.1669 23.7955 46.2222 31.5555 46.2222Z" fill="#FFB822"/>
<path d="M31.5555 46.2222C39.3155 46.2222 46.6259 48.1669 53.0361 51.5998C53.9181 52.0722 53.5661 53.3333 52.5656 53.3333H10.5455C9.54506 53.3333 9.19304 52.0722 10.075 51.5998C16.4852 48.1669 23.7955 46.2222 31.5555 46.2222Z" fill="url(#paint7_linear_1_19464)"/>
<path d="M31.8939 46.2222C39.5481 46.2222 46.7588 48.1678 53.0813 51.6021C53.9575 52.0781 53.6028 53.3333 52.6057 53.3333H51.1733C50.981 53.3333 50.793 53.2776 50.6307 53.1744C44.382 49.2 37.1202 46.7404 29.3333 46.2958C30.181 46.2473 31.0345 46.2222 31.8939 46.2222Z" fill="#FFB822"/>
<path d="M31.8939 46.2222C39.5481 46.2222 46.7588 48.1678 53.0813 51.6021C53.9575 52.0781 53.6028 53.3333 52.6057 53.3333H51.1733C50.981 53.3333 50.793 53.2776 50.6307 53.1744C44.382 49.2 37.1202 46.7404 29.3333 46.2958C30.181 46.2473 31.0345 46.2222 31.8939 46.2222Z" fill="url(#paint8_linear_1_19464)"/>
<ellipse rx="1.33333" ry="1.33333" transform="matrix(-1 0 0 1 28.8889 23.5555)" fill="#2A2A2A"/>
<ellipse rx="0.888889" ry="0.888888" transform="matrix(-1 0 0 1 30.2222 21.3332)" fill="#2A2A2A"/>
<ellipse rx="1.77778" ry="1.77778" transform="matrix(-1 0 0 1 26.6667 20.4445)" fill="#2A2A2A"/>
<path d="M47.1111 27.2195C52.6301 25.5633 52.6301 28.8762 58.1491 26.6667" stroke="white" stroke-linecap="round"/>
<path d="M2.66666 4.10841C8.18566 2.4522 8.18566 5.7651 13.7047 3.55566" stroke="white" stroke-linecap="round"/>
<path d="M51.3004 31.2715C56.4251 29.6153 56.4251 32.9282 61.5499 30.7188" stroke="white" stroke-linecap="round"/>
<path d="M6.8559 8.16041C11.9807 6.5042 11.9807 9.8171 17.1055 7.60767" stroke="white" stroke-linecap="round"/>
<path fill-rule="evenodd" clip-rule="evenodd" d="M58.5177 58.3467C58.9583 57.9128 59.6729 57.9128 60.1135 58.3467C60.5542 58.7806 60.5542 59.4842 60.1135 59.9181C59.1589 60.8581 57.8896 61.3759 56.5396 61.3759C55.1896 61.3759 53.9203 60.8581 52.9656 59.9181C52.4373 59.3978 51.7348 59.1114 50.9875 59.1114C50.2404 59.1114 49.5379 59.3978 49.0095 59.9181C48.0549 60.8581 46.7856 61.3759 45.4356 61.3759C44.0856 61.3759 42.8163 60.8581 41.8616 59.9181C41.3333 59.3978 40.6308 59.1114 39.8836 59.1114C39.1364 59.1114 38.4339 59.3978 37.9056 59.9181C35.9348 61.8584 32.7283 61.8584 30.7575 59.9181C29.6669 58.8442 27.892 58.8442 26.8013 59.9181C25.8468 60.8581 24.5775 61.3759 23.2274 61.3759C21.8774 61.3759 20.608 60.8581 19.6534 59.9181C18.5627 58.8442 16.7879 58.8442 15.6972 59.9181C14.7425 60.8581 13.4733 61.3759 12.1233 61.3759C10.7733 61.3759 9.50389 60.8581 8.54931 59.9181C7.45854 58.8442 5.6838 58.8442 4.59313 59.9181C4.15236 60.352 3.43783 60.352 2.99716 59.9181C2.55649 59.4842 2.55649 58.7806 2.99716 58.3467C3.95185 57.4067 5.22124 56.8889 6.57124 56.8889C7.92121 56.8889 9.1905 57.4067 10.1452 58.3467C10.6736 58.867 11.376 59.1534 12.1233 59.1534C12.8704 59.1534 13.5729 58.867 14.1013 58.3467C15.0559 57.4067 16.3252 56.8889 17.6752 56.8889C19.0252 56.8889 20.2945 57.4067 21.2492 58.3467C21.7775 58.867 22.48 59.1534 23.2271 59.1534C23.9744 59.1534 24.6769 58.867 25.2052 58.3467C27.176 56.4064 30.3825 56.4064 32.3533 58.3467C33.4439 59.4206 35.2188 59.4206 36.3094 58.3467C37.264 57.4067 38.5333 56.8889 39.8834 56.8889C41.2334 56.8889 42.5028 57.4067 43.4574 58.3467C44.548 59.4206 46.3229 59.4206 47.4135 58.3467C48.3682 57.4067 49.6376 56.8889 50.9875 56.8889C52.3375 56.8889 53.6069 57.4067 54.5615 58.3467C55.6522 59.4206 57.427 59.4206 58.5177 58.3467Z" fill="#FFB822"/>
<path fill-rule="evenodd" clip-rule="evenodd" d="M58.5177 58.3467C58.9583 57.9128 59.6729 57.9128 60.1135 58.3467C60.5542 58.7806 60.5542 59.4842 60.1135 59.9181C59.1589 60.8581 57.8896 61.3759 56.5396 61.3759C55.1896 61.3759 53.9203 60.8581 52.9656 59.9181C52.4373 59.3978 51.7348 59.1114 50.9875 59.1114C50.2404 59.1114 49.5379 59.3978 49.0095 59.9181C48.0549 60.8581 46.7856 61.3759 45.4356 61.3759C44.0856 61.3759 42.8163 60.8581 41.8616 59.9181C41.3333 59.3978 40.6308 59.1114 39.8836 59.1114C39.1364 59.1114 38.4339 59.3978 37.9056 59.9181C35.9348 61.8584 32.7283 61.8584 30.7575 59.9181C29.6669 58.8442 27.892 58.8442 26.8013 59.9181C25.8468 60.8581 24.5775 61.3759 23.2274 61.3759C21.8774 61.3759 20.608 60.8581 19.6534 59.9181C18.5627 58.8442 16.7879 58.8442 15.6972 59.9181C14.7425 60.8581 13.4733 61.3759 12.1233 61.3759C10.7733 61.3759 9.50389 60.8581 8.54931 59.9181C7.45854 58.8442 5.6838 58.8442 4.59313 59.9181C4.15236 60.352 3.43783 60.352 2.99716 59.9181C2.55649 59.4842 2.55649 58.7806 2.99716 58.3467C3.95185 57.4067 5.22124 56.8889 6.57124 56.8889C7.92121 56.8889 9.1905 57.4067 10.1452 58.3467C10.6736 58.867 11.376 59.1534 12.1233 59.1534C12.8704 59.1534 13.5729 58.867 14.1013 58.3467C15.0559 57.4067 16.3252 56.8889 17.6752 56.8889C19.0252 56.8889 20.2945 57.4067 21.2492 58.3467C21.7775 58.867 22.48 59.1534 23.2271 59.1534C23.9744 59.1534 24.6769 58.867 25.2052 58.3467C27.176 56.4064 30.3825 56.4064 32.3533 58.3467C33.4439 59.4206 35.2188 59.4206 36.3094 58.3467C37.264 57.4067 38.5333 56.8889 39.8834 56.8889C41.2334 56.8889 42.5028 57.4067 43.4574 58.3467C44.548 59.4206 46.3229 59.4206 47.4135 58.3467C48.3682 57.4067 49.6376 56.8889 50.9875 56.8889C52.3375 56.8889 53.6069 57.4067 54.5615 58.3467C55.6522 59.4206 57.427 59.4206 58.5177 58.3467Z" fill="url(#paint9_linear_1_19464)"/>
<defs>
<linearGradient id="paint0_linear_1_19464" x1="25.005" y1="23.1111" x2="25.005" y2="53.2542" gradientUnits="userSpaceOnUse">
<stop stop-color="#F6871F" stop-opacity="0.7"/>
<stop offset="1" stop-color="#FCB216"/>
</linearGradient>
<linearGradient id="paint1_linear_1_19464" x1="27.3238" y1="23.1111" x2="27.3238" y2="53.2542" gradientUnits="userSpaceOnUse">
<stop stop-color="#F6871F" stop-opacity="0.7"/>
<stop offset="1" stop-color="#FCB216"/>
</linearGradient>
<linearGradient id="paint2_linear_1_19464" x1="14.5841" y1="13.6925" x2="14.5841" y2="23.4447" gradientUnits="userSpaceOnUse">
<stop stop-color="#F6871F" stop-opacity="0.7"/>
<stop offset="1" stop-color="#FCB216"/>
</linearGradient>
<linearGradient id="paint3_linear_1_19464" x1="25.9326" y1="2.66675" x2="25.9326" y2="23.9442" gradientUnits="userSpaceOnUse">
<stop stop-color="#F6871F" stop-opacity="0.7"/>
<stop offset="1" stop-color="#FCB216"/>
</linearGradient>
<linearGradient id="paint4_linear_1_19464" x1="19.3812" y1="22.4197" x2="19.3812" y2="39.1052" gradientUnits="userSpaceOnUse">
<stop stop-color="#F6871F" stop-opacity="0.7"/>
<stop offset="1" stop-color="#FCB216"/>
</linearGradient>
<linearGradient id="paint5_linear_1_19464" x1="35.8075" y1="13.9487" x2="35.8075" y2="23.8635" gradientUnits="userSpaceOnUse">
<stop stop-color="#F6871F" stop-opacity="0.7"/>
<stop offset="1" stop-color="#FCB216"/>
</linearGradient>
<linearGradient id="paint6_linear_1_19464" x1="34.01" y1="23.1111" x2="34.01" y2="39.0692" gradientUnits="userSpaceOnUse">
<stop stop-color="#F6871F" stop-opacity="0.7"/>
<stop offset="1" stop-color="#FCB216"/>
</linearGradient>
<linearGradient id="paint7_linear_1_19464" x1="24.117" y1="46.2222" x2="24.117" y2="53.3147" gradientUnits="userSpaceOnUse">
<stop stop-color="#F6871F" stop-opacity="0.7"/>
<stop offset="1" stop-color="#FCB216"/>
</linearGradient>
<linearGradient id="paint8_linear_1_19464" x1="38.6093" y1="46.2222" x2="38.6093" y2="53.3147" gradientUnits="userSpaceOnUse">
<stop stop-color="#F6871F" stop-opacity="0.7"/>
<stop offset="1" stop-color="#FCB216"/>
</linearGradient>
<linearGradient id="paint9_linear_1_19464" x1="40.3463" y1="56.8889" x2="40.3463" y2="61.3641" gradientUnits="userSpaceOnUse">
<stop stop-color="#F6871F" stop-opacity="0.7"/>
<stop offset="1" stop-color="#FCB216"/>
</linearGradient>
</defs>
</svg>
