<svg width="12" height="12" viewBox="0 0 12 12" fill="none" xmlns="http://www.w3.org/2000/svg">
<path d="M10.8134 8.16684L9.13336 7.9735C8.72669 7.92684 8.32669 8.06684 8.04003 8.3535L6.80669 9.58684C5.86069 9.10684 5.00269 8.48084 4.26136 7.73884C3.51936 6.9975 2.89336 6.1395 2.41336 5.1935L3.64669 3.96017C3.93336 3.6735 4.07336 3.2735 4.02669 2.86684L3.83336 1.18684C3.75336 0.513503 3.18669 0.00683594 2.50669 0.00683594H1.35336C0.600027 0.00683594 -0.0266396 0.633503 0.0200271 1.38684C0.196694 4.23284 1.42269 6.79217 3.31536 8.68484C5.20803 10.5775 7.76736 11.8035 10.6134 11.9802C11.3667 12.0268 11.9934 11.4002 11.9934 10.6468V9.4935C11.9934 8.8135 11.4867 8.24684 10.8134 8.16684Z" fill="white"/>
</svg>
