<svg width="64" height="64" viewBox="0 0 64 64" fill="none" xmlns="http://www.w3.org/2000/svg">
<g clip-path="url(#clip0_1_19499)">
<path fill-rule="evenodd" clip-rule="evenodd" d="M40.3987 5.06339C38.9768 6.96141 37.1579 9.78009 35.7973 13.2376C35.5464 13.367 35.2978 13.5003 35.052 13.6378C32.4998 15.0652 30.2686 16.8913 28.4444 19.0278C29.6801 12.0447 34.4058 6.52696 40.3987 5.06339ZM26.7722 0C27.6298 0.752075 29.7596 3.81494 30.615 8.23225C28.9661 10.1635 27.6863 12.4019 26.8172 14.834C25.9421 12.3844 24.6502 10.1316 22.9844 8.19062C23.7945 3.86532 25.8368 0.72549 26.7722 0ZM18.5613 13.6378C18.3243 13.5052 18.0844 13.3772 17.8426 13.2519C16.4812 9.78818 14.6595 6.96387 13.2355 5.06339C19.238 6.5294 23.9693 12.0622 25.1962 19.0607C23.3667 16.9101 21.1265 15.0723 18.5613 13.6378ZM26.8626 25.7196L34.0397 33.0098L26.8626 40.3004L19.6855 33.0098L26.8626 25.7196ZM30.0373 25.1448H30.6261C33.7497 25.1448 36.6264 26.238 38.9058 28.0671L35.91 31.11L30.0373 25.1448ZM26.8627 44.0996L34.2914 51.6452L26.8627 59.1911L19.4341 51.6452L26.8627 44.0996ZM17.5638 49.7457L10.3867 42.4551L17.8154 34.9096L24.9925 42.1998L17.5638 49.7457ZM23.0028 25.1448H23.6879L17.8154 31.11L14.7772 28.0241C17.0479 26.2208 19.9038 25.1448 23.0028 25.1448ZM9.62345 38.735C9.62345 35.3548 10.845 32.2591 12.8629 29.8787L15.9452 33.0098L9.62345 39.4311V38.735ZM11.2385 56.1709C10.2089 54.2463 9.62363 52.0425 9.62363 49.7023V45.4796L15.6938 51.6455L11.2385 56.1709ZM22.8359 63.2813L22.8276 63.2908C18.789 63.2376 15.1764 61.3585 12.7553 58.4296L17.564 53.5449L24.9926 61.0908L22.8359 63.2813ZM30.6261 63.2929H26.565L36.1615 53.5449L40.9179 58.3764C38.4618 61.378 34.7602 63.2929 30.6261 63.2929ZM44.0054 49.7023C44.0054 52.0166 43.4324 54.1973 42.4239 56.1066L38.0317 51.6452L44.0054 45.5772V49.7023ZM40.8103 29.9319C42.8015 32.3052 44.0054 35.3797 44.0054 38.7354V41.778L36.1615 49.7457L28.7328 42.1998L35.91 34.9092L37.5646 36.59C37.8229 36.8524 38.1613 36.9836 38.4997 36.9836C38.8381 36.9836 39.1764 36.8524 39.4347 36.59C39.9511 36.0657 39.9511 35.2149 39.4347 34.6902L37.7802 33.0098L40.8103 29.9319ZM37.6506 24.108C35.5282 23.0524 33.1443 22.4583 30.6261 22.4583H29.1632C31.127 19.6082 33.8207 17.2924 36.9956 15.6491C37.2633 15.6085 37.5132 15.484 37.7104 15.294C40.0191 14.1964 42.5603 13.4429 45.2464 13.0868C42.9814 15.4529 39.8162 19.293 37.6506 24.108ZM41.4865 37.3302C41.8342 37.3302 42.1754 37.474 42.4212 37.7237C42.6674 37.9735 42.8089 38.3202 42.8089 38.6734C42.8089 39.0268 42.6672 39.3734 42.4212 39.6231C42.3234 39.7225 42.2105 39.8051 42.0881 39.8684C41.9822 39.9233 41.8693 39.9638 41.7529 39.9887C41.6655 40.0072 41.5762 40.0167 41.4865 40.0167C41.1386 40.0167 40.7975 39.8729 40.5515 39.6231C40.3054 39.3734 40.1641 39.0268 40.1641 38.6734C40.1641 38.3202 40.3056 37.9735 40.5515 37.7237C40.682 37.5911 40.8393 37.4886 41.0101 37.4215C41.1613 37.362 41.3232 37.3302 41.4865 37.3302ZM27.7493 32.3529C27.5034 32.1031 27.1623 31.9594 26.8145 31.9594C26.4667 31.9594 26.1256 32.1031 25.8795 32.3529C25.6336 32.6026 25.4922 32.9492 25.4922 33.304C25.4922 33.4754 25.5253 33.6447 25.5876 33.8021C25.6538 33.9697 25.7528 34.1239 25.8795 34.2533C26.1256 34.5035 26.4667 34.6472 26.8145 34.6472C27.1623 34.6472 27.5022 34.5035 27.7493 34.2533C27.9953 34.0021 28.1369 33.6572 28.1369 33.304C28.1369 32.9492 27.9954 32.604 27.7493 32.3529ZM26.8145 50.5296C27.1623 50.5296 27.5034 50.6734 27.7493 50.9232C27.9954 51.1729 28.1369 51.5196 28.1369 51.8729C28.1369 52.2261 27.9953 52.5724 27.7493 52.8226C27.5034 53.0738 27.1623 53.2161 26.8145 53.2161C26.4667 53.2161 26.1257 53.0724 25.8795 52.8226C25.6335 52.5724 25.4922 52.2276 25.4922 51.8729C25.4922 51.5196 25.6336 51.1729 25.8795 50.9232C26.1256 50.6734 26.4667 50.5296 26.8145 50.5296ZM18.4595 41.7059C18.2138 41.4561 17.8726 41.312 17.5248 41.312C17.177 41.312 16.8358 41.4557 16.5898 41.7059C16.3439 41.9556 16.2024 42.302 16.2024 42.6552C16.2024 43.0089 16.3437 43.3552 16.5898 43.605C16.6588 43.6749 16.7354 43.7368 16.8173 43.7893C16.8664 43.8208 16.9173 43.8488 16.9699 43.8736C17.0056 43.8904 17.0418 43.9054 17.0787 43.9188C17.2212 43.9708 17.3723 43.9985 17.5248 43.9985C17.8726 43.9985 18.2138 43.855 18.4595 43.605C18.7055 43.3552 18.8472 43.0089 18.8472 42.6552C18.8472 42.302 18.7057 41.9556 18.4595 41.7059ZM36.201 41.312C36.5486 41.312 36.8898 41.4561 37.1359 41.7059C37.3819 41.9556 37.5233 42.302 37.5233 42.6552C37.5233 43.0089 37.3818 43.3552 37.1359 43.605C36.8898 43.855 36.5488 43.9985 36.201 43.9985C35.8531 43.9985 35.512 43.8547 35.2661 43.605C35.0201 43.3552 34.8786 43.0089 34.8786 42.6552C34.8786 42.302 35.0202 41.9556 35.2661 41.7059C35.512 41.4557 35.8531 41.312 36.201 41.312ZM37.1344 58.3051C36.8883 58.0553 36.5472 57.9112 36.1994 57.9112C35.8503 57.9112 35.5105 58.0549 35.2632 58.3051C35.0172 58.5548 34.877 58.9011 34.877 59.2544C34.877 59.6077 35.0172 59.9544 35.2632 60.2041C35.5105 60.4539 35.8503 60.5976 36.1994 60.5976C36.5472 60.5976 36.887 60.4542 37.1344 60.2041C37.3802 59.953 37.5218 59.6077 37.5218 59.2544C37.5218 58.9011 37.3803 58.5548 37.1344 58.3051ZM17.5237 57.9112C17.8715 57.9112 18.2127 58.0553 18.4586 58.3051C18.7045 58.5548 18.8447 58.9001 18.8447 59.2544C18.8447 59.6077 18.7045 59.9544 18.4586 60.2041C18.2127 60.4542 17.8715 60.5976 17.5237 60.5976C17.1745 60.5976 16.8346 60.4539 16.5874 60.2041C16.3416 59.9544 16.2013 59.6077 16.2013 59.2544C16.2013 58.9001 16.3416 58.5548 16.5874 58.3051C16.8346 58.0539 17.1745 57.9112 17.5237 57.9112ZM15.9212 24.2072C18.0435 23.1516 20.4275 22.5576 22.9458 22.5576H24.4087C22.4448 19.7074 19.7512 17.3916 16.5762 15.7484C16.3086 15.7077 16.0586 15.5832 15.8615 15.3932C13.5528 14.2956 11.0115 13.5421 8.3255 13.186C10.5905 15.5521 13.7557 19.3922 15.9212 24.2072Z" fill="#FFB822"/>
<path fill-rule="evenodd" clip-rule="evenodd" d="M40.3987 5.06339C38.9768 6.96141 37.1579 9.78009 35.7973 13.2376C35.5464 13.367 35.2978 13.5003 35.052 13.6378C32.4998 15.0652 30.2686 16.8913 28.4444 19.0278C29.6801 12.0447 34.4058 6.52696 40.3987 5.06339ZM26.7722 0C27.6298 0.752075 29.7596 3.81494 30.615 8.23225C28.9661 10.1635 27.6863 12.4019 26.8172 14.834C25.9421 12.3844 24.6502 10.1316 22.9844 8.19062C23.7945 3.86532 25.8368 0.72549 26.7722 0ZM18.5613 13.6378C18.3243 13.5052 18.0844 13.3772 17.8426 13.2519C16.4812 9.78818 14.6595 6.96387 13.2355 5.06339C19.238 6.5294 23.9693 12.0622 25.1962 19.0607C23.3667 16.9101 21.1265 15.0723 18.5613 13.6378ZM26.8626 25.7196L34.0397 33.0098L26.8626 40.3004L19.6855 33.0098L26.8626 25.7196ZM30.0373 25.1448H30.6261C33.7497 25.1448 36.6264 26.238 38.9058 28.0671L35.91 31.11L30.0373 25.1448ZM26.8627 44.0996L34.2914 51.6452L26.8627 59.1911L19.4341 51.6452L26.8627 44.0996ZM17.5638 49.7457L10.3867 42.4551L17.8154 34.9096L24.9925 42.1998L17.5638 49.7457ZM23.0028 25.1448H23.6879L17.8154 31.11L14.7772 28.0241C17.0479 26.2208 19.9038 25.1448 23.0028 25.1448ZM9.62345 38.735C9.62345 35.3548 10.845 32.2591 12.8629 29.8787L15.9452 33.0098L9.62345 39.4311V38.735ZM11.2385 56.1709C10.2089 54.2463 9.62363 52.0425 9.62363 49.7023V45.4796L15.6938 51.6455L11.2385 56.1709ZM22.8359 63.2813L22.8276 63.2908C18.789 63.2376 15.1764 61.3585 12.7553 58.4296L17.564 53.5449L24.9926 61.0908L22.8359 63.2813ZM30.6261 63.2929H26.565L36.1615 53.5449L40.9179 58.3764C38.4618 61.378 34.7602 63.2929 30.6261 63.2929ZM44.0054 49.7023C44.0054 52.0166 43.4324 54.1973 42.4239 56.1066L38.0317 51.6452L44.0054 45.5772V49.7023ZM40.8103 29.9319C42.8015 32.3052 44.0054 35.3797 44.0054 38.7354V41.778L36.1615 49.7457L28.7328 42.1998L35.91 34.9092L37.5646 36.59C37.8229 36.8524 38.1613 36.9836 38.4997 36.9836C38.8381 36.9836 39.1764 36.8524 39.4347 36.59C39.9511 36.0657 39.9511 35.2149 39.4347 34.6902L37.7802 33.0098L40.8103 29.9319ZM37.6506 24.108C35.5282 23.0524 33.1443 22.4583 30.6261 22.4583H29.1632C31.127 19.6082 33.8207 17.2924 36.9956 15.6491C37.2633 15.6085 37.5132 15.484 37.7104 15.294C40.0191 14.1964 42.5603 13.4429 45.2464 13.0868C42.9814 15.4529 39.8162 19.293 37.6506 24.108ZM41.4865 37.3302C41.8342 37.3302 42.1754 37.474 42.4212 37.7237C42.6674 37.9735 42.8089 38.3202 42.8089 38.6734C42.8089 39.0268 42.6672 39.3734 42.4212 39.6231C42.3234 39.7225 42.2105 39.8051 42.0881 39.8684C41.9822 39.9233 41.8693 39.9638 41.7529 39.9887C41.6655 40.0072 41.5762 40.0167 41.4865 40.0167C41.1386 40.0167 40.7975 39.8729 40.5515 39.6231C40.3054 39.3734 40.1641 39.0268 40.1641 38.6734C40.1641 38.3202 40.3056 37.9735 40.5515 37.7237C40.682 37.5911 40.8393 37.4886 41.0101 37.4215C41.1613 37.362 41.3232 37.3302 41.4865 37.3302ZM27.7493 32.3529C27.5034 32.1031 27.1623 31.9594 26.8145 31.9594C26.4667 31.9594 26.1256 32.1031 25.8795 32.3529C25.6336 32.6026 25.4922 32.9492 25.4922 33.304C25.4922 33.4754 25.5253 33.6447 25.5876 33.8021C25.6538 33.9697 25.7528 34.1239 25.8795 34.2533C26.1256 34.5035 26.4667 34.6472 26.8145 34.6472C27.1623 34.6472 27.5022 34.5035 27.7493 34.2533C27.9953 34.0021 28.1369 33.6572 28.1369 33.304C28.1369 32.9492 27.9954 32.604 27.7493 32.3529ZM26.8145 50.5296C27.1623 50.5296 27.5034 50.6734 27.7493 50.9232C27.9954 51.1729 28.1369 51.5196 28.1369 51.8729C28.1369 52.2261 27.9953 52.5724 27.7493 52.8226C27.5034 53.0738 27.1623 53.2161 26.8145 53.2161C26.4667 53.2161 26.1257 53.0724 25.8795 52.8226C25.6335 52.5724 25.4922 52.2276 25.4922 51.8729C25.4922 51.5196 25.6336 51.1729 25.8795 50.9232C26.1256 50.6734 26.4667 50.5296 26.8145 50.5296ZM18.4595 41.7059C18.2138 41.4561 17.8726 41.312 17.5248 41.312C17.177 41.312 16.8358 41.4557 16.5898 41.7059C16.3439 41.9556 16.2024 42.302 16.2024 42.6552C16.2024 43.0089 16.3437 43.3552 16.5898 43.605C16.6588 43.6749 16.7354 43.7368 16.8173 43.7893C16.8664 43.8208 16.9173 43.8488 16.9699 43.8736C17.0056 43.8904 17.0418 43.9054 17.0787 43.9188C17.2212 43.9708 17.3723 43.9985 17.5248 43.9985C17.8726 43.9985 18.2138 43.855 18.4595 43.605C18.7055 43.3552 18.8472 43.0089 18.8472 42.6552C18.8472 42.302 18.7057 41.9556 18.4595 41.7059ZM36.201 41.312C36.5486 41.312 36.8898 41.4561 37.1359 41.7059C37.3819 41.9556 37.5233 42.302 37.5233 42.6552C37.5233 43.0089 37.3818 43.3552 37.1359 43.605C36.8898 43.855 36.5488 43.9985 36.201 43.9985C35.8531 43.9985 35.512 43.8547 35.2661 43.605C35.0201 43.3552 34.8786 43.0089 34.8786 42.6552C34.8786 42.302 35.0202 41.9556 35.2661 41.7059C35.512 41.4557 35.8531 41.312 36.201 41.312ZM37.1344 58.3051C36.8883 58.0553 36.5472 57.9112 36.1994 57.9112C35.8503 57.9112 35.5105 58.0549 35.2632 58.3051C35.0172 58.5548 34.877 58.9011 34.877 59.2544C34.877 59.6077 35.0172 59.9544 35.2632 60.2041C35.5105 60.4539 35.8503 60.5976 36.1994 60.5976C36.5472 60.5976 36.887 60.4542 37.1344 60.2041C37.3802 59.953 37.5218 59.6077 37.5218 59.2544C37.5218 58.9011 37.3803 58.5548 37.1344 58.3051ZM17.5237 57.9112C17.8715 57.9112 18.2127 58.0553 18.4586 58.3051C18.7045 58.5548 18.8447 58.9001 18.8447 59.2544C18.8447 59.6077 18.7045 59.9544 18.4586 60.2041C18.2127 60.4542 17.8715 60.5976 17.5237 60.5976C17.1745 60.5976 16.8346 60.4539 16.5874 60.2041C16.3416 59.9544 16.2013 59.6077 16.2013 59.2544C16.2013 58.9001 16.3416 58.5548 16.5874 58.3051C16.8346 58.0539 17.1745 57.9112 17.5237 57.9112ZM15.9212 24.2072C18.0435 23.1516 20.4275 22.5576 22.9458 22.5576H24.4087C22.4448 19.7074 19.7512 17.3916 16.5762 15.7484C16.3086 15.7077 16.0586 15.5832 15.8615 15.3932C13.5528 14.2956 11.0115 13.5421 8.3255 13.186C10.5905 15.5521 13.7557 19.3922 15.9212 24.2072Z" fill="url(#paint0_linear_1_19499)"/>
<path d="M50.5344 27.5566C52.4808 27.5566 54.0588 25.9786 54.0588 24.0322C54.0588 22.0857 52.4808 20.5078 50.5344 20.5078C48.5879 20.5078 47.01 22.0857 47.01 24.0322C47.01 25.9786 48.5879 27.5566 50.5344 27.5566Z" stroke="white"/>
<path d="M2.1412 51.9196C3.07828 51.9196 3.83793 51.1599 3.83793 50.2229C3.83793 49.2858 3.07828 48.5261 2.1412 48.5261C1.20411 48.5261 0.444458 49.2858 0.444458 50.2229C0.444458 51.1599 1.20411 51.9196 2.1412 51.9196Z" stroke="white"/>
</g>
<defs>
<linearGradient id="paint0_linear_1_19499" x1="26.7859" y1="0" x2="26.7859" y2="63.2929" gradientUnits="userSpaceOnUse">
<stop stop-color="#F6871F" stop-opacity="0.7"/>
<stop offset="1" stop-color="#FCB216"/>
</linearGradient>
<clipPath id="clip0_1_19499">
<rect width="64" height="64" fill="white"/>
</clipPath>
</defs>
</svg>
