<svg width="64" height="64" viewBox="0 0 64 64" fill="none" xmlns="http://www.w3.org/2000/svg">
<g clip-path="url(#clip0_1_19435)">
<path fill-rule="evenodd" clip-rule="evenodd" d="M20.2144 59.1941H35.0291C44.1057 56.1105 50.6367 47.5167 50.6367 37.3975H4.60675C4.60675 47.5169 11.1378 56.1106 20.2144 59.1941ZM27.732 55.4332H27.7371L27.7931 55.4328C28.4838 55.4246 29.0371 54.858 29.0288 54.1671C29.0206 53.4762 28.4581 52.9225 27.7632 52.9313L27.727 52.9316C27.0362 52.9343 26.4786 53.4966 26.4812 54.1875C26.484 54.8765 27.0436 55.4332 27.732 55.4332ZM34.0443 54.2563C33.8978 54.3121 33.7472 54.3386 33.5991 54.3386C33.0951 54.3386 32.6202 54.0319 32.4301 53.533C32.1841 52.8875 32.508 52.1648 33.1535 51.9188C37.198 50.3773 40.4407 47.1879 42.05 43.1684C42.3067 42.5269 43.0349 42.2155 43.676 42.472C44.3174 42.7286 44.629 43.4567 44.3722 44.098C42.5041 48.764 38.7396 52.4666 34.0443 54.2563Z" fill="#FFB822"/>
<path fill-rule="evenodd" clip-rule="evenodd" d="M20.2144 59.1941H35.0291C44.1057 56.1105 50.6367 47.5167 50.6367 37.3975H4.60675C4.60675 47.5169 11.1378 56.1106 20.2144 59.1941ZM27.732 55.4332H27.7371L27.7931 55.4328C28.4838 55.4246 29.0371 54.858 29.0288 54.1671C29.0206 53.4762 28.4581 52.9225 27.7632 52.9313L27.727 52.9316C27.0362 52.9343 26.4786 53.4966 26.4812 54.1875C26.484 54.8765 27.0436 55.4332 27.732 55.4332ZM34.0443 54.2563C33.8978 54.3121 33.7472 54.3386 33.5991 54.3386C33.0951 54.3386 32.6202 54.0319 32.4301 53.533C32.1841 52.8875 32.508 52.1648 33.1535 51.9188C37.198 50.3773 40.4407 47.1879 42.05 43.1684C42.3067 42.5269 43.0349 42.2155 43.676 42.472C44.3174 42.7286 44.629 43.4567 44.3722 44.098C42.5041 48.764 38.7396 52.4666 34.0443 54.2563Z" fill="url(#paint0_linear_1_19435)"/>
<path fill-rule="evenodd" clip-rule="evenodd" d="M50.3911 34.7302C50.5498 34.1801 50.6366 33.5994 50.6366 32.9982C50.6366 30.2369 48.842 27.8964 46.3558 27.075C46.4451 26.6549 46.4931 26.2195 46.4931 25.7727C46.4931 22.5597 44.0638 19.9152 40.9419 19.573C40.6658 16.3829 37.9906 13.8794 34.7289 13.8794C33.3782 13.8794 32.1288 14.3101 31.1075 15.0398C29.6973 14.3 28.0932 13.8794 26.3902 13.8794C24.5758 13.8794 22.8736 14.3566 21.3985 15.1891C20.4961 14.3753 19.3013 13.8794 17.9903 13.8794C15.2494 13.8794 13.0154 16.0458 12.9049 18.7597C10.4849 19.1532 8.63724 21.252 8.63724 23.7832C8.63724 24.6403 8.84999 25.4475 9.22424 26.1562C6.84249 27.0344 5.14386 29.3239 5.14386 32.0107C5.14386 32.9856 5.36786 33.9081 5.76661 34.7299L50.3911 34.7302ZM16.6471 18.2433C16.4145 18.4759 16.2806 18.7987 16.2806 19.1277C16.2806 19.4567 16.4144 19.7793 16.6471 20.0121C16.8799 20.2448 17.2025 20.3786 17.5315 20.3786C17.8605 20.3786 18.1831 20.2447 18.4158 20.0121C18.6496 19.7794 18.7824 19.4567 18.7824 19.1277C18.7824 18.7987 18.6496 18.4761 18.4158 18.2433C18.1833 18.0107 17.8616 17.8768 17.5315 17.8768C17.2025 17.8768 16.8798 18.0107 16.6471 18.2433ZM26.621 19.7948C26.621 20.1238 26.487 20.4465 26.2544 20.6792C26.0219 20.913 25.6993 21.0455 25.3702 21.0457C25.0412 21.0457 24.7184 20.913 24.4858 20.6792C24.253 20.4464 24.1193 20.125 24.1193 19.7948C24.1193 19.4658 24.253 19.143 24.4858 18.9104C24.7185 18.6778 25.0412 18.5439 25.3702 18.5439C25.6992 18.5439 26.0219 18.6778 26.2544 18.9104C26.4872 19.1431 26.621 19.4658 26.621 19.7948ZM19.2304 24.8724C18.9978 25.105 18.8651 25.4278 18.8651 25.7568C18.8651 26.0858 18.9978 26.4084 19.2304 26.6412C19.4629 26.8738 19.7856 27.0077 20.1146 27.0077C20.445 27.0077 20.7677 26.8738 21.0003 26.6412C21.2329 26.4085 21.3669 26.0858 21.3669 25.7568C21.3669 25.4278 21.233 25.1052 21.0003 24.8724C20.7678 24.6398 20.445 24.5059 20.1146 24.5059C19.7858 24.5059 19.4629 24.6398 19.2304 24.8724ZM13.6126 28.8844C13.6126 28.5554 13.7465 28.2326 13.9791 28C14.2117 27.7673 14.5345 27.6335 14.8635 27.6335C15.1925 27.6335 15.5152 27.7674 15.7477 28C15.9805 28.2328 16.1144 28.5554 16.1144 28.8844C16.1144 29.2134 15.9804 29.5361 15.7477 29.7688C15.5151 30.0014 15.1925 30.1353 14.8635 30.1353C14.5345 30.1353 14.2119 30.0014 13.9791 29.7688C13.7464 29.536 13.6126 29.2134 13.6126 28.8844Z" fill="#FFB822"/>
<path fill-rule="evenodd" clip-rule="evenodd" d="M50.3911 34.7302C50.5498 34.1801 50.6366 33.5994 50.6366 32.9982C50.6366 30.2369 48.842 27.8964 46.3558 27.075C46.4451 26.6549 46.4931 26.2195 46.4931 25.7727C46.4931 22.5597 44.0638 19.9152 40.9419 19.573C40.6658 16.3829 37.9906 13.8794 34.7289 13.8794C33.3782 13.8794 32.1288 14.3101 31.1075 15.0398C29.6973 14.3 28.0932 13.8794 26.3902 13.8794C24.5758 13.8794 22.8736 14.3566 21.3985 15.1891C20.4961 14.3753 19.3013 13.8794 17.9903 13.8794C15.2494 13.8794 13.0154 16.0458 12.9049 18.7597C10.4849 19.1532 8.63724 21.252 8.63724 23.7832C8.63724 24.6403 8.84999 25.4475 9.22424 26.1562C6.84249 27.0344 5.14386 29.3239 5.14386 32.0107C5.14386 32.9856 5.36786 33.9081 5.76661 34.7299L50.3911 34.7302ZM16.6471 18.2433C16.4145 18.4759 16.2806 18.7987 16.2806 19.1277C16.2806 19.4567 16.4144 19.7793 16.6471 20.0121C16.8799 20.2448 17.2025 20.3786 17.5315 20.3786C17.8605 20.3786 18.1831 20.2447 18.4158 20.0121C18.6496 19.7794 18.7824 19.4567 18.7824 19.1277C18.7824 18.7987 18.6496 18.4761 18.4158 18.2433C18.1833 18.0107 17.8616 17.8768 17.5315 17.8768C17.2025 17.8768 16.8798 18.0107 16.6471 18.2433ZM26.621 19.7948C26.621 20.1238 26.487 20.4465 26.2544 20.6792C26.0219 20.913 25.6993 21.0455 25.3702 21.0457C25.0412 21.0457 24.7184 20.913 24.4858 20.6792C24.253 20.4464 24.1193 20.125 24.1193 19.7948C24.1193 19.4658 24.253 19.143 24.4858 18.9104C24.7185 18.6778 25.0412 18.5439 25.3702 18.5439C25.6992 18.5439 26.0219 18.6778 26.2544 18.9104C26.4872 19.1431 26.621 19.4658 26.621 19.7948ZM19.2304 24.8724C18.9978 25.105 18.8651 25.4278 18.8651 25.7568C18.8651 26.0858 18.9978 26.4084 19.2304 26.6412C19.4629 26.8738 19.7856 27.0077 20.1146 27.0077C20.445 27.0077 20.7677 26.8738 21.0003 26.6412C21.2329 26.4085 21.3669 26.0858 21.3669 25.7568C21.3669 25.4278 21.233 25.1052 21.0003 24.8724C20.7678 24.6398 20.445 24.5059 20.1146 24.5059C19.7858 24.5059 19.4629 24.6398 19.2304 24.8724ZM13.6126 28.8844C13.6126 28.5554 13.7465 28.2326 13.9791 28C14.2117 27.7673 14.5345 27.6335 14.8635 27.6335C15.1925 27.6335 15.5152 27.7674 15.7477 28C15.9805 28.2328 16.1144 28.5554 16.1144 28.8844C16.1144 29.2134 15.9804 29.5361 15.7477 29.7688C15.5151 30.0014 15.1925 30.1353 14.8635 30.1353C14.5345 30.1353 14.2119 30.0014 13.9791 29.7688C13.7464 29.536 13.6126 29.2134 13.6126 28.8844Z" fill="url(#paint1_linear_1_19435)"/>
<path d="M29.4426 8.44824C29.4426 5.23991 30.4426 4.92562 30.4426 2.7911C30.4426 0.656575 29.4426 0.656576 29.4426 -2.55176" stroke="white" stroke-linecap="round" stroke-linejoin="round"/>
<path d="M33.4426 6.44824C33.4426 5.24824 34.4426 4.24824 34.4426 2.84824C34.4426 1.44824 33.4426 0.648242 33.4426 -0.551758" stroke="white" stroke-linecap="round" stroke-linejoin="round"/>
<path d="M25.4426 6.44824C25.4426 5.24824 26.4426 4.24824 26.4426 2.84824C26.4426 1.44824 25.4426 0.648242 25.4426 -0.551758" stroke="white" stroke-linecap="round" stroke-linejoin="round"/>
</g>
<defs>
<linearGradient id="paint0_linear_1_19435" x1="27.6217" y1="37.3975" x2="27.6217" y2="59.1941" gradientUnits="userSpaceOnUse">
<stop stop-color="#F6871F" stop-opacity="0.7"/>
<stop offset="1" stop-color="#FCB216"/>
</linearGradient>
<linearGradient id="paint1_linear_1_19435" x1="27.8902" y1="13.8794" x2="27.8902" y2="34.7302" gradientUnits="userSpaceOnUse">
<stop stop-color="#F6871F" stop-opacity="0.7"/>
<stop offset="1" stop-color="#FCB216"/>
</linearGradient>
<clipPath id="clip0_1_19435">
<rect width="64" height="64" fill="white"/>
</clipPath>
</defs>
</svg>
