<svg width="8" height="8" viewBox="0 0 8 8" fill="none" xmlns="http://www.w3.org/2000/svg">
<path d="M3.99896 0.266602C3.85751 0.266602 3.72185 0.322792 3.62183 0.422811C3.52182 0.522831 3.46563 0.658486 3.46563 0.799935C3.4656 0.846715 3.47173 0.893295 3.48385 0.938477L0.936979 3.48535C0.89199 3.47309 0.845587 3.46679 0.798958 3.4666C0.65751 3.4666 0.521854 3.52279 0.421835 3.62281C0.321815 3.72283 0.265625 3.85849 0.265625 3.99993C0.265625 4.14138 0.321815 4.27704 0.421835 4.37706C0.521854 4.47708 0.65751 4.53327 0.798958 4.53327C0.84539 4.5332 0.891614 4.52707 0.936458 4.51504L3.48438 7.06296C3.47221 7.10761 3.46591 7.15365 3.46563 7.19993C3.46563 7.34138 3.52182 7.47704 3.62183 7.57706C3.72185 7.67708 3.85751 7.73327 3.99896 7.73327C4.14041 7.73327 4.27606 7.67708 4.37608 7.57706C4.4761 7.47704 4.53229 7.34138 4.53229 7.19993C4.53223 7.1535 4.5261 7.10728 4.51406 7.06243L7.06198 4.51452C7.10663 4.52668 7.15268 4.53299 7.19896 4.53327C7.34041 4.53327 7.47606 4.47708 7.57608 4.37706C7.6761 4.27704 7.73229 4.14138 7.73229 3.99993C7.73229 3.85849 7.6761 3.72283 7.57608 3.62281C7.47606 3.52279 7.34041 3.4666 7.19896 3.4666C7.15218 3.46658 7.1056 3.4727 7.06042 3.48483L4.51354 0.937956C4.5258 0.892966 4.5321 0.846564 4.53229 0.799935C4.53229 0.658486 4.4761 0.522831 4.37608 0.422811C4.27606 0.322792 4.14041 0.266602 3.99896 0.266602ZM3.86198 1.31452C3.90663 1.32668 3.95268 1.33299 3.99896 1.33327C4.04539 1.3332 4.09161 1.32707 4.13646 1.31504L6.68438 3.86296C6.67221 3.90761 6.66591 3.95365 6.66563 3.99993C6.6656 4.04671 6.67173 4.0933 6.68385 4.13848L4.13698 6.68535C4.09199 6.67309 4.04559 6.66679 3.99896 6.6666C3.95218 6.66658 3.9056 6.6727 3.86042 6.68483L1.31354 4.13796C1.3258 4.09297 1.3321 4.04656 1.33229 3.99993C1.33223 3.9535 1.3261 3.90728 1.31406 3.86243L3.86198 1.31452Z" fill="white"/>
</svg>
