<svg width="10" height="10" viewBox="0 0 10 10" fill="none" xmlns="http://www.w3.org/2000/svg">
<path d="M6.125 0.125C4.05811 0.125 2.375 1.80811 2.375 3.875C2.375 4.77295 2.68994 5.59619 3.21875 6.24219L0.230469 9.23047L0.769531 9.76953L3.75781 6.78125C4.40381 7.31006 5.22705 7.625 6.125 7.625C8.19189 7.625 9.875 5.94189 9.875 3.875C9.875 1.80811 8.19189 0.125 6.125 0.125ZM6.125 0.875C7.78613 0.875 9.125 2.21387 9.125 3.875C9.125 5.53613 7.78613 6.875 6.125 6.875C4.46387 6.875 3.125 5.53613 3.125 3.875C3.125 2.21387 4.46387 0.875 6.125 0.875Z" fill="white"/>
</svg>
