<svg width="16" height="10" viewBox="0 0 16 10" fill="none" xmlns="http://www.w3.org/2000/svg">
<path d="M15.2691 9.10552L13.1341 9.13524C13.1341 9.13524 12.6734 9.22553 12.0711 8.80949C11.2722 8.26086 10.5189 6.83329 9.93146 7.01846C9.33597 7.20819 9.35426 8.49289 9.35426 8.49289C9.35426 8.49289 9.35883 8.71919 9.22282 8.86664C9.07537 9.02551 8.7862 9.00951 8.7862 9.00951H7.82954C7.82954 9.00951 5.71961 9.18438 3.86 7.24591C1.83466 5.13255 0.0447676 0.961856 0.0447676 0.961856C0.0447676 0.961856 -0.0603862 0.698974 0.0516249 0.564103C0.178495 0.415517 0.520243 0.410944 0.520243 0.410944L2.80618 0.399515C2.80618 0.399515 3.02106 0.437233 3.17651 0.55153C3.30338 0.645253 3.37538 0.821271 3.37538 0.821271C3.37538 0.821271 3.74456 1.75736 4.2349 2.60545C5.19042 4.25818 5.63389 4.6205 5.9585 4.44334C6.43169 4.18503 6.28996 2.10711 6.28996 2.10711C6.28996 2.10711 6.2991 1.35275 6.05222 1.01672C5.8602 0.754979 5.49902 0.677257 5.34129 0.657826C5.21214 0.640682 5.42244 0.341223 5.69676 0.206353C6.10822 0.00518992 6.83515 -0.00623967 7.69352 0.00176112C8.36216 0.00861894 8.55532 0.0497665 8.81592 0.113773C9.60457 0.304649 9.33712 1.04072 9.33712 2.80661C9.33712 3.37238 9.23539 4.16789 9.64229 4.42963C9.81831 4.54278 10.2469 4.44677 11.3156 2.62488C11.8242 1.76079 12.2048 0.745835 12.2048 0.745835C12.2048 0.745835 12.2883 0.565246 12.4174 0.487524C12.55 0.407516 12.7283 0.432661 12.7283 0.432661L15.1343 0.417803C15.1343 0.417803 15.8566 0.330936 15.9743 0.658969C16.0978 1.00186 15.7046 1.80308 14.7216 3.11407C13.1078 5.26743 12.9283 5.06741 14.269 6.31324C15.5492 7.50307 15.8132 8.08142 15.8578 8.15457C16.387 9.0358 15.2691 9.10552 15.2691 9.10552Z" fill="white"/>
</svg>
